<?xml version="1.0" encoding="utf-8"?>
<!-- Generator: Adobe Illustrator 22.1.0, SVG Export Plug-In . SVG Version: 6.00 Build 0)  -->
<svg version="1.1" id="Capa_1" xmlns="http://www.w3.org/2000/svg" xmlns:xlink="http://www.w3.org/1999/xlink" x="0px" y="0px"
	 viewBox="0 0 484.2 105" style="enable-background:new 0 0 484.2 105;" xml:space="preserve">
<style type="text/css">
	.st0{fill:#FFFFFF;}
</style>
<path class="st0" d="M87.4,72.7c0,2.9-2.4,5.3-5.3,5.3c-2.9,0-5.3-2.4-5.3-5.3V32.3c0-2.9,2.4-5.3,5.3-5.3c2.9,0,5.3,2.4,5.3,5.3
	V72.7z M68.6,59.7c0,2.9-2.4,5.3-5.3,5.3c-2.9,0-5.3-2.4-5.3-5.3V41.3c0-2.9,2.4-5.3,5.3-5.3c2.9,0,5.3,2.4,5.3,5.3V59.7z
	 M48.9,72.7c0,2.9-2.4,5.3-5.3,5.3c-2.9,0-5.3-2.4-5.3-5.3V32.3c0-2.9,2.4-5.3,5.3-5.3c2.9,0,5.3,2.4,5.3,5.3V72.7z M62.8,10
	c-23.5,0-42.5,19-42.5,42.5S39.4,95,62.8,95s42.5-19,42.5-42.5S86.3,10,62.8,10z"/>
<g>
	<g>
		<path class="st0" d="M120,72.1V32.5h15l4.8,17.6c0.2,0.6,0.4,1.4,0.7,2.5c0.3,1.1,0.5,2.2,0.8,3.3c0.3,1.2,0.5,2.2,0.7,3.1h0.5
			c0.2-0.7,0.3-1.6,0.6-2.6c0.2-1,0.5-2.1,0.7-3.2c0.3-1.1,0.5-2.2,0.7-3.1l4.8-17.6H164v39.5h-10V55.2c0-1.6,0-3.3,0-5
			c0-1.7,0-3.2,0.1-4.6c0-1.4,0.1-2.4,0.1-3h-0.5c-0.1,0.6-0.3,1.4-0.5,2.5c-0.2,1.1-0.5,2.2-0.8,3.4c-0.3,1.2-0.5,2.2-0.8,3
			l-5.8,20.6h-8.3l-5.8-20.6c-0.2-0.8-0.4-1.7-0.7-2.8c-0.3-1.1-0.5-2.2-0.8-3.3c-0.2-1.1-0.5-2.1-0.7-2.8h-0.5c0,1,0.1,2.2,0.1,3.7
			c0,1.4,0.1,2.9,0.1,4.5c0,1.6,0.1,3,0.1,4.4v16.9H120z"/>
		<path class="st0" d="M186.7,72.8c-3.5,0-6.4-0.6-8.8-1.7c-2.4-1.1-4.3-2.9-5.6-5.2c-1.3-2.3-1.9-5.3-1.9-9c0-3.6,0.6-6.5,1.9-8.9
			c1.3-2.3,3.1-4.1,5.5-5.2c2.4-1.2,5.2-1.7,8.6-1.7c3.3,0,6.1,0.6,8.4,1.7c2.3,1.1,4,2.8,5.2,5.1c1.2,2.3,1.8,5.3,1.8,8.9v2H180
			c0,1.6,0.2,3,0.7,4.1s1.2,2,2.1,2.5c1,0.6,2.2,0.9,3.9,0.9c1,0,1.8-0.1,2.5-0.3c0.7-0.2,1.3-0.6,1.8-1c0.5-0.4,0.9-1,1.2-1.6
			c0.3-0.6,0.4-1.3,0.4-2.1h9.2c0,1.8-0.3,3.5-1,4.9c-0.7,1.4-1.7,2.6-3,3.6c-1.3,1-2.9,1.7-4.7,2.2
			C191.2,72.5,189.1,72.8,186.7,72.8z M180.1,53.5h12.1c0-1-0.1-1.9-0.4-2.6c-0.2-0.7-0.6-1.4-1.1-1.9c-0.5-0.5-1.1-0.9-1.7-1.1
			c-0.7-0.2-1.4-0.4-2.3-0.4c-1.4,0-2.5,0.2-3.5,0.7c-0.9,0.5-1.6,1.1-2.1,2C180.5,51.1,180.2,52.2,180.1,53.5z"/>
		<path class="st0" d="M218.2,72.8c-2,0-3.6-0.3-5-0.9c-1.4-0.6-2.4-1.5-3.1-2.7c-0.7-1.2-1-2.6-1-4.3V48.6h-4v-6.9h4.3l2-8.9h7.1
			v8.9h5.9v6.9h-5.9v14c0,1.1,0.2,1.9,0.6,2.5c0.4,0.6,1.2,0.9,2.3,0.9h3v5.9c-0.5,0.2-1.1,0.3-1.9,0.5c-0.7,0.2-1.5,0.3-2.3,0.4
			C219.5,72.7,218.8,72.8,218.2,72.8z"/>
		<path class="st0" d="M238.1,72.8c-1.3,0-2.5-0.1-3.7-0.4c-1.2-0.2-2.3-0.7-3.3-1.3c-1-0.6-1.8-1.5-2.3-2.6
			c-0.6-1.1-0.9-2.5-0.9-4.2c0-2.2,0.5-4,1.4-5.4s2.3-2.5,4-3.3c1.7-0.8,3.9-1.3,6.3-1.6c2.5-0.3,5.2-0.5,8.3-0.5v-1.9
			c0-0.9-0.2-1.6-0.5-2.2c-0.3-0.6-0.9-1.1-1.5-1.4c-0.7-0.3-1.6-0.5-2.7-0.5c-1,0-1.9,0.1-2.6,0.3c-0.7,0.2-1.3,0.6-1.7,1
			c-0.4,0.4-0.6,1-0.6,1.6V51h-9.2c0-0.2-0.1-0.4-0.1-0.5c0-0.1,0-0.3,0-0.5c0-1.8,0.6-3.4,1.7-4.7c1.1-1.3,2.8-2.4,4.9-3.1
			c2.1-0.7,4.7-1.1,7.7-1.1c2.8,0,5.2,0.3,7.3,1c2.1,0.7,3.7,1.7,5,3.2c1.2,1.4,1.8,3.3,1.8,5.6v13c0,0.7,0.2,1.2,0.5,1.6
			c0.4,0.4,0.8,0.6,1.4,0.6h2v5.8c-0.4,0.2-1.1,0.4-2,0.7c-0.9,0.2-2,0.4-3.3,0.4c-1.3,0-2.4-0.2-3.4-0.5c-1-0.3-1.8-0.8-2.4-1.4
			s-1.1-1.3-1.3-2.1h-0.4c-0.7,0.8-1.6,1.5-2.6,2.1c-1,0.6-2.1,1.1-3.4,1.4C241.3,72.6,239.8,72.8,238.1,72.8z M241.7,66.3
			c0.9,0,1.8-0.1,2.5-0.4c0.8-0.3,1.4-0.6,2-1.1c0.6-0.5,1-1.1,1.3-1.8c0.3-0.7,0.5-1.4,0.5-2.2v-2c-2.2,0-4.1,0.2-5.6,0.5
			c-1.6,0.3-2.8,0.8-3.6,1.4c-0.8,0.7-1.3,1.5-1.3,2.5c0,0.7,0.2,1.3,0.5,1.8c0.4,0.5,0.9,0.8,1.5,1
			C240.1,66.2,240.8,66.3,241.7,66.3z"/>
		<path class="st0" d="M282.3,72.8c-2.5,0-4.8-0.2-7-0.7c-2.2-0.4-4.1-1.2-5.8-2.2c-1.7-1-3-2.3-3.9-3.9c-1-1.6-1.4-3.6-1.4-6
			c0-0.2,0-0.3,0-0.5c0-0.2,0-0.3,0.1-0.5h10c0,0.1,0,0.3,0,0.4c0,0.2,0,0.3,0,0.4c0,1.2,0.3,2.2,1,3c0.6,0.7,1.5,1.3,2.7,1.6
			s2.5,0.5,4,0.5c0.8,0,1.6,0,2.4-0.1c0.7-0.1,1.4-0.2,2-0.4c0.6-0.2,1.1-0.4,1.5-0.7c0.4-0.3,0.8-0.6,1-1c0.2-0.4,0.3-0.9,0.3-1.4
			c0-0.9-0.3-1.6-1-2.2c-0.7-0.6-1.6-1.1-2.7-1.4c-1.1-0.4-2.4-0.7-3.8-1.1c-1.4-0.3-2.9-0.7-4.4-1.1c-1.5-0.4-3-0.9-4.4-1.4
			c-1.4-0.6-2.7-1.3-3.8-2.2c-1.1-0.9-2-2-2.7-3.3c-0.7-1.3-1-2.9-1-4.8c0-2.1,0.4-3.9,1.3-5.4c0.9-1.5,2.1-2.8,3.7-3.7
			c1.6-1,3.3-1.7,5.4-2.1c2-0.4,4.2-0.7,6.5-0.7c2.3,0,4.4,0.2,6.4,0.7s3.7,1.2,5.3,2.2c1.5,1,2.7,2.2,3.6,3.7
			c0.9,1.5,1.3,3.3,1.4,5.3v0.7h-9.9V44c0-0.9-0.2-1.7-0.7-2.3c-0.5-0.7-1.2-1.2-2.2-1.6s-2.1-0.6-3.6-0.6c-1.4,0-2.6,0.1-3.6,0.4
			c-1,0.3-1.7,0.7-2.2,1.2c-0.5,0.5-0.8,1.1-0.8,1.8c0,0.8,0.3,1.5,1,2.1c0.7,0.5,1.6,1,2.7,1.4c1.2,0.4,2.4,0.7,3.9,1.1
			c1.4,0.3,2.9,0.7,4.4,1c1.5,0.4,3,0.8,4.4,1.4c1.4,0.6,2.7,1.3,3.9,2.1c1.2,0.9,2.1,1.9,2.7,3.2c0.7,1.3,1,2.8,1,4.6
			c0,3.1-0.7,5.7-2.2,7.6c-1.5,1.9-3.5,3.3-6.1,4.2C288.5,72.3,285.6,72.8,282.3,72.8z"/>
		<path class="st0" d="M319.9,72.8c-3.4,0-6.3-0.6-8.7-1.7s-4.2-2.9-5.5-5.3c-1.3-2.4-1.9-5.3-1.9-8.9s0.6-6.5,1.9-8.9
			c1.3-2.3,3.1-4.1,5.5-5.2s5.3-1.7,8.7-1.7c3.4,0,6.3,0.6,8.7,1.7s4.2,2.9,5.5,5.2c1.3,2.3,1.9,5.3,1.9,8.9s-0.6,6.5-1.9,8.9
			c-1.3,2.4-3.1,4.1-5.5,5.3S323.4,72.8,319.9,72.8z M319.9,65.9c1.6,0,2.8-0.3,3.8-0.9s1.7-1.5,2.1-2.7c0.4-1.2,0.7-2.6,0.7-4.3
			v-2.1c0-1.7-0.2-3.2-0.7-4.4c-0.4-1.2-1.2-2.1-2.1-2.7c-1-0.6-2.3-0.9-3.8-0.9c-1.5,0-2.8,0.3-3.8,0.9c-1,0.6-1.7,1.5-2.1,2.7
			c-0.4,1.2-0.7,2.6-0.7,4.4V58c0,1.7,0.2,3.2,0.7,4.3c0.4,1.2,1.2,2.1,2.1,2.7S318.4,65.9,319.9,65.9z"/>
		<path class="st0" d="M351.9,72.8c-3.3,0-5.8-0.9-7.6-2.7s-2.7-4.6-2.7-8.3v-20h9.4v18.7c0,0.8,0.1,1.5,0.3,2.1
			c0.2,0.6,0.5,1.1,0.9,1.6c0.4,0.4,0.9,0.7,1.5,0.9c0.6,0.2,1.2,0.3,1.9,0.3c1.1,0,2.1-0.3,2.9-0.8c0.8-0.5,1.5-1.2,2-2.1
			c0.5-0.9,0.7-1.9,0.7-3V41.7h9.4v30.3h-7.8l-0.6-4.3h-0.4c-0.7,1-1.6,1.9-2.6,2.6c-1.1,0.8-2.2,1.4-3.5,1.8
			C354.7,72.6,353.3,72.8,351.9,72.8z"/>
		<path class="st0" d="M378,72.1V41.7h7.8l0.7,4.3h0.4c0.8-1,1.7-1.9,2.6-2.7c1-0.8,2.1-1.3,3.4-1.7c1.3-0.4,2.6-0.6,4-0.6
			c2.2,0,4,0.4,5.6,1.2c1.5,0.8,2.7,2,3.5,3.6c0.8,1.6,1.2,3.7,1.2,6.2v20h-9.4V53.4c0-0.8-0.1-1.6-0.3-2.2
			c-0.2-0.6-0.5-1.1-0.9-1.5c-0.4-0.4-0.9-0.7-1.4-0.9c-0.6-0.2-1.2-0.3-2-0.3c-1.1,0-2.1,0.3-2.9,0.8c-0.8,0.5-1.5,1.2-2,2.1
			c-0.5,0.9-0.7,1.9-0.7,3v17.7H378z"/>
		<path class="st0" d="M425.3,72.8c-2.6,0-4.8-0.6-6.7-1.7c-1.9-1.2-3.3-2.9-4.3-5.2c-1-2.3-1.5-5.3-1.5-9c0-3.6,0.5-6.5,1.5-8.8
			c1-2.3,2.4-4.1,4.3-5.2c1.8-1.2,4-1.7,6.5-1.7c1.2,0,2.3,0.1,3.4,0.4c1.1,0.3,2.1,0.7,2.9,1.3s1.6,1.3,2.2,2.1h0.3V30.4h9.4v41.7
			h-7.7l-0.7-4.2h-0.4c-1,1.7-2.4,2.9-4,3.7C429.1,72.4,427.3,72.8,425.3,72.8z M428.2,65.4c1.4,0,2.5-0.3,3.4-0.9
			c0.9-0.6,1.5-1.5,1.9-2.7c0.4-1.2,0.6-2.5,0.6-4.1v-1.4c0-1.2-0.1-2.2-0.3-3.2c-0.2-1-0.6-1.8-1-2.5c-0.5-0.7-1.1-1.2-1.8-1.6
			c-0.7-0.4-1.6-0.6-2.7-0.6c-1.4,0-2.6,0.3-3.4,0.9c-0.9,0.6-1.5,1.4-1.9,2.5c-0.4,1.1-0.6,2.5-0.6,4.1v2c0,1.6,0.2,3,0.6,4.1
			c0.4,1.1,1,1.9,1.9,2.5C425.7,65.1,426.8,65.4,428.2,65.4z"/>
	</g>
</g>
</svg>
